<svg width="40" height="40" viewBox="0 0 40 40" fill="none" xmlns="http://www.w3.org/2000/svg">
<path d="M36.2452 0H5.20536C2.86855 0 0.972656 1.8959 0.972656 4.2327V35.2725C0.972656 37.6093 2.86855 39.5052 5.20536 39.5052H36.2452C38.582 39.5052 40.4779 37.6093 40.4779 35.2725V4.2327C40.4779 1.8959 38.582 0 36.2452 0ZM25.4253 33.8352C24.6846 33.9674 24.4112 33.5089 24.4112 33.1297C24.4112 32.6535 24.4289 30.2197 24.4289 28.2533C24.4289 26.8777 23.9703 26.0047 23.4324 25.5461C26.6951 25.1846 30.1342 24.7349 30.1342 19.1001C30.1342 17.4952 29.561 16.6927 28.6263 15.661C28.7762 15.2818 29.2789 13.721 28.4764 11.6928C27.2507 11.3137 24.4465 13.2713 24.4465 13.2713C23.2825 12.945 22.0215 12.7775 20.7782 12.7775C19.5348 12.7775 18.2738 12.945 17.1098 13.2713C17.1098 13.2713 14.3057 11.3137 13.0799 11.6928C12.2775 13.7122 12.7713 15.273 12.93 15.661C11.9953 16.6927 11.5544 17.4952 11.5544 19.1001C11.5544 24.7084 14.8436 25.1846 18.1063 25.5461C17.683 25.9253 17.3038 26.5778 17.1716 27.5126C16.3338 27.8917 14.191 28.5443 12.9124 26.2868C12.11 24.8936 10.6638 24.7789 10.6638 24.7789C9.23524 24.7613 10.5668 25.6784 10.5668 25.6784C11.5191 26.1193 12.1893 27.8124 12.1893 27.8124C13.0447 30.4314 17.1363 29.5496 17.1363 29.5496C17.1363 30.7753 17.1539 32.7682 17.1539 33.1297C17.1539 33.5089 16.8894 33.9674 16.1398 33.8352C10.3199 31.8864 6.2459 26.3486 6.2459 19.8761C6.2459 11.781 12.4362 5.63479 20.5313 5.63479C28.6263 5.63479 35.187 11.781 35.187 19.8761C35.1958 26.3486 31.2453 31.8952 25.4253 33.8352ZM16.7747 28.4473C16.6072 28.4826 16.4485 28.412 16.4308 28.2974C16.4132 28.1651 16.5278 28.0505 16.6954 28.0152C16.8629 27.9976 17.0217 28.0681 17.0393 28.1827C17.0657 28.2974 16.9511 28.412 16.7747 28.4473ZM15.937 28.3679C15.937 28.4826 15.8048 28.5796 15.6284 28.5796C15.4344 28.5972 15.3021 28.5002 15.3021 28.3679C15.3021 28.2533 15.4344 28.1563 15.6108 28.1563C15.7783 28.1387 15.937 28.2357 15.937 28.3679ZM14.7289 28.2709C14.6937 28.3856 14.5173 28.4385 14.3674 28.3856C14.1999 28.3503 14.0852 28.218 14.1205 28.1034C14.1558 27.9887 14.3321 27.9358 14.482 27.9711C14.6584 28.024 14.773 28.1563 14.7289 28.2709ZM13.6443 27.7947C13.5649 27.8917 13.3974 27.8741 13.2651 27.7418C13.1329 27.6272 13.0976 27.4597 13.1858 27.3803C13.2651 27.2833 13.4327 27.3009 13.5649 27.4332C13.6796 27.5478 13.7237 27.7242 13.6443 27.7947ZM12.8419 26.9923C12.7625 27.0452 12.6126 26.9923 12.5156 26.86C12.4186 26.7278 12.4186 26.5778 12.5156 26.5161C12.6126 26.4368 12.7625 26.4985 12.8419 26.6308C12.9389 26.763 12.9389 26.9218 12.8419 26.9923ZM12.2687 26.1369C12.1893 26.2163 12.057 26.1722 11.96 26.084C11.863 25.9694 11.8454 25.8371 11.9248 25.7754C12.0041 25.696 12.1364 25.7401 12.2334 25.8283C12.3304 25.9429 12.348 26.0752 12.2687 26.1369ZM11.6779 25.4844C11.6426 25.5638 11.528 25.5814 11.431 25.5197C11.3163 25.4668 11.2634 25.3698 11.2987 25.2904C11.334 25.2375 11.431 25.211 11.5456 25.2551C11.6602 25.3169 11.7131 25.4139 11.6779 25.4844Z" fill="white"/>
</svg>
