<svg width="40" height="40" viewBox="0 0 40 40" fill="none" xmlns="http://www.w3.org/2000/svg">
<path d="M37.453 0H3.58251C2.03052 0 0.769531 1.27863 0.769531 2.84826V36.657C0.769531 38.2266 2.03052 39.5052 3.58251 39.5052H37.453C39.0049 39.5052 40.2748 38.2266 40.2748 36.657V2.84826C40.2748 1.27863 39.0049 0 37.453 0ZM12.7093 33.8616H6.85404V15.0085H12.7181V33.8616H12.7093ZM9.78166 12.4336C7.9034 12.4336 6.38668 10.908 6.38668 9.03858C6.38668 7.16914 7.9034 5.6436 9.78166 5.6436C11.6511 5.6436 13.1766 7.16914 13.1766 9.03858C13.1766 10.9168 11.6599 12.4336 9.78166 12.4336ZM34.6576 33.8616H28.8024V24.6908C28.8024 22.5039 28.7583 19.6909 25.7601 19.6909C22.709 19.6909 22.2417 22.0718 22.2417 24.532V33.8616H16.3864V15.0085H22.0036V17.5834H22.083C22.8678 16.1019 24.7813 14.5411 27.6296 14.5411C33.5553 14.5411 34.6576 18.4475 34.6576 23.5268V33.8616Z" fill="white"/>
</svg>
